<mxfile host="app.diagrams.net" modified="2024-05-04T20:57:03.375Z" agent="Mozilla/5.0 (Macintosh; Intel Mac OS X 10.15; rv:125.0) Gecko/20100101 Firefox/125.0" version="24.3.1" etag="tDOwTEE82fas2SjRBonC" type="github">
  <diagram name="Page-1" id="ISKzJsUJe--Yjxj5tc32">
    <mxGraphModel>
      <root>
        <mxCell id="0" />
        <mxCell id="1" parent="0" />
      </root>
    </mxGraphModel>
  </diagram>
</mxfile>
